<?xml version="1.0" standalone="no"?><!DOCTYPE svg PUBLIC "-//W3C//DTD SVG 1.1//EN" "http://www.w3.org/Graphics/SVG/1.1/DTD/svg11.dtd"><svg t="1599247109968" class="icon" viewBox="0 0 1024 1024" version="1.1" xmlns="http://www.w3.org/2000/svg" p-id="873" xmlns:xlink="http://www.w3.org/1999/xlink" width="200" height="200"><defs><style type="text/css"></style></defs><path d="M294.592 524.832c-12.768 0-23.168-10.912-23.168-24.352s10.4-24.352 23.168-24.352h250.208c12.768 0 23.168 10.912 23.168 24.352s-10.4 24.352-23.168 24.352z m-0.8 116.992c-12.352 0-22.368-10.912-22.368-24.352s10.048-24.352 22.368-24.352h150.272c12.288 0 22.368 10.912 22.368 24.352s-10.048 24.352-22.368 24.352z m365.024 0c-11.744 0-21.28-10.912-21.28-24.352s9.536-24.352 21.28-24.352h72.48c11.744 0 21.28 10.912 21.28 24.352s-9.536 24.352-21.28 24.352zM295.776 758.848a24.352 24.352 0 0 1 0-48.704h432.448a24.352 24.352 0 0 1 0 48.704z m48.352-407.04a24.416 24.416 0 0 1-24.352-24.352V157.024a24.416 24.416 0 0 1 24.352-24.352h59.04c3.872-2.4 11.968-10.336 16.032-14.336 15.456-15.168 34.688-34.016 59.744-34.016h66.144c25.056 0 44.256 18.816 59.712 33.952 4.096 4 12.192 11.968 16.064 14.336h59.04c13.44 0.032 24.32 10.912 24.352 24.352v170.496a24.416 24.416 0 0 1-24.352 24.352z m311.392-48.736V181.344h-36.672c-19.296 0-33.952-14.336-48.128-28.256-5.568-5.472-11.264-11.072-16.672-15.136-6.4-4.864-8.992-4.96-8.992-4.96h-66.144s-2.624 0.096-9.024 4.96c-5.376 4.096-11.072 9.696-16.576 15.104-14.176 13.888-28.8 28.256-48.128 28.256h-36.704V303.04z" fill="#ffffff" p-id="874"></path><path d="M211.584 952.192a78.912 78.912 0 0 1-78.848-78.848V264.896a78.912 78.912 0 0 1 78.848-78.848h132.544a24.352 24.352 0 0 1 0 48.704H211.616a30.08 30.08 0 0 0-30.112 30.112v608.576c0.032 16.64 13.504 30.08 30.112 30.112h600.832a30.176 30.176 0 0 0 30.112-30.112V264.896a30.176 30.176 0 0 0-30.112-30.112h-132.544a24.352 24.352 0 0 1 0-48.704h132.544a78.848 78.848 0 0 1 78.848 78.848v608.48a78.912 78.912 0 0 1-78.848 78.848z" fill="#ffffff" p-id="875"></path><path d="M483.488 680.608v-37.984h6.528l3.104-28.128 204.576-204.608-1.184-1.216 45.312-36.224 49.824 49.824-36.224 45.312-1.184-1.184-204.608 204.576-28.096 3.104v6.496H483.52z" fill="#ffffff" p-id="876"></path></svg>